<svg width="80" height="62" viewBox="0 0 80 62" fill="none" xmlns="http://www.w3.org/2000/svg">
<path d="M20 59.0011H1.33328C0.595937 59.0011 0 59.5984 0 60.3344C0 61.0703 0.595937 61.6677 1.33328 61.6677H20C20.7373 61.6677 21.3333 61.0703 21.3333 60.3344C21.3333 59.5984 20.7373 59.0011 20 59.0011Z" fill="#D4C17F"/>
<path d="M16 56.3317C24.8226 56.3317 32 49.1529 32 40.3317C32 35.9143 30.2386 31.8011 27.04 28.749C26.5093 28.2423 25.6626 28.2623 25.1546 28.7931C24.6467 29.3264 24.6667 30.1704 25.1987 30.6784C27.864 33.2225 29.3334 36.649 29.3334 40.3317C29.3334 47.6837 23.352 53.665 16.0001 53.665C8.64825 53.665 2.66684 47.6836 2.66684 40.3317C2.66684 32.9784 8.64825 26.9984 16.0001 26.9984C16.7375 26.9984 17.3334 26.4011 17.3334 25.6651C17.3334 24.9278 16.7375 24.3318 16.0001 24.3318C7.17746 24.3318 0.000122073 31.5092 0.000122073 40.3318C-3.41771e-05 49.1529 7.17731 56.3317 16 56.3317Z" fill="#D4C17F"/>
<path d="M22.6667 18.9982H23.3426L15.64 37.7009C14.3414 37.8782 13.3333 38.9836 13.3333 40.3315C13.3333 41.8021 14.5292 42.9982 16 42.9982C17.4706 42.9982 18.6667 41.8023 18.6667 40.3315C18.6667 39.7209 18.4534 39.1662 18.1067 38.7156L25.6308 20.4462L34.0695 32.6982C34.4854 33.305 35.3136 33.4595 35.9228 33.0409C36.5308 32.6223 36.6828 31.7929 36.2642 31.1862L27.8695 18.9982H30.6668C32.8722 18.9982 34.6669 17.2035 34.6669 14.9982C34.6669 12.7915 32.8722 10.9982 30.6668 10.9982H22.6668C21.9295 10.9982 21.3336 11.5942 21.3336 12.3315V17.6648C21.3333 18.401 21.9293 18.9982 22.6667 18.9982ZM24 13.665H30.6667C31.4026 13.665 32 14.2623 32 14.9982C32 15.7329 31.4026 16.3315 30.6667 16.3315H24V13.665Z" fill="#D4C17F"/>
<path d="M62.6667 25.665C62.6667 26.4009 63.2627 26.9983 64 26.9983C71.352 26.9983 77.3333 32.9783 77.3333 40.3316C77.3333 47.6836 71.3519 53.6649 64 53.6649C56.6481 53.6649 50.6667 47.6834 50.6667 40.3316C50.6667 36.3356 52.4361 32.5849 55.5241 30.0383C56.0908 29.5703 56.172 28.7303 55.7027 28.1624C55.2347 27.5956 54.3959 27.5117 53.8253 27.9811C50.1239 31.0358 48 35.5358 48 40.3317C48 49.153 55.1773 56.3317 64 56.3317C72.8227 56.3317 80 49.153 80 40.3317C80 31.5091 72.8227 24.3317 64 24.3317C63.2627 24.3317 62.6667 24.9277 62.6667 25.665Z" fill="#D4C17F"/>
<path d="M41.3333 59.0011H28C27.2627 59.0011 26.6667 59.5984 26.6667 60.3344C26.6667 61.0703 27.2627 61.6677 28 61.6677H41.3333C42.0707 61.6677 42.6666 61.0703 42.6666 60.3344C42.6667 59.5984 42.0707 59.0011 41.3333 59.0011Z" fill="#D4C17F"/>
<path d="M41.3332 33.8544V29.665C42.0706 29.665 42.6665 29.0676 42.6665 28.3317C42.6665 27.5944 42.0706 26.9984 41.3332 26.9984H38.6665C37.9292 26.9984 37.3332 27.5944 37.3332 28.3317C37.3332 29.0676 37.9292 29.665 38.6665 29.665V33.8544C36.3718 34.4503 34.6665 36.5197 34.6665 38.9984C34.6665 41.4758 36.3718 43.5451 38.6665 44.1425V48.3319C37.9292 48.3319 37.3332 48.9278 37.3332 49.6651C37.3332 50.4011 37.9292 50.9984 38.6665 50.9984H41.3332C42.0706 50.9984 42.6665 50.4011 42.6665 49.6651C42.6665 48.9278 42.0706 48.3319 41.3332 48.3319V44.1425C43.6279 43.5451 45.3332 41.4758 45.3332 38.9984C45.3332 36.5197 43.6279 34.4503 41.3332 33.8544ZM39.9999 41.665C38.5306 41.665 37.3332 40.469 37.3332 38.9983C37.3332 37.5276 38.5306 36.3315 39.9999 36.3315C41.4706 36.3315 42.6667 37.5275 42.6667 38.9983C42.6667 40.469 41.4706 41.665 39.9999 41.665Z" fill="#D4C17F"/>
<path d="M61.9454 38.6517C61.5694 39.1117 61.3333 39.6917 61.3333 40.3317C61.3333 41.8023 62.5307 42.9984 64 42.9984C65.4694 42.9984 66.6668 41.8025 66.6668 40.3317C66.6668 39.0117 65.7 37.9211 64.4415 37.709L58.4241 21.665H67.9427C69.5386 21.665 70.4668 20.389 70.6413 19.2597L71.9733 12.593C72.0519 12.2009 71.9507 11.7944 71.6974 11.4862C71.4441 11.1769 71.0668 10.9983 70.6668 10.9983H58.6668C57.9294 10.9983 57.3335 11.5942 57.3335 12.3315C57.3335 13.0675 57.9294 13.6648 58.6668 13.6648H69.04L68.0215 18.7662C68.0014 18.8583 67.9441 18.9876 67.9429 18.9983H57.4243L53.2496 7.86358C53.2469 7.85827 53.2429 7.85561 53.2416 7.8503C53.239 7.84498 53.2402 7.83967 53.239 7.83561L50.5722 1.16889C50.299 0.484828 49.5163 0.156859 48.839 0.426234C48.1549 0.699515 47.8216 1.47561 48.0949 2.15951L50.5243 8.22748L45.5096 17.0034C45.1429 17.6422 45.3655 18.4567 46.0055 18.8222C46.2135 18.9408 46.4415 18.9981 46.6655 18.9981C47.1296 18.9981 47.5788 18.7569 47.8241 18.3261L51.7494 11.4581L54.9574 20.014L44.796 31.4447C44.3054 31.9953 44.356 32.838 44.9066 33.3273C45.1599 33.554 45.476 33.6647 45.7919 33.6647C46.1586 33.6647 46.5252 33.5126 46.7879 33.2167L56.0158 22.8367L61.9454 38.6517Z" fill="#D4C17F"/>
<path d="M78.6667 59.0011H57.3333C56.5959 59.0011 56 59.5984 56 60.3344C56 61.0703 56.5959 61.6677 57.3333 61.6677H78.6666C79.4039 61.6677 79.9998 61.0703 79.9998 60.3344C80 59.5984 79.4041 59.0011 78.6667 59.0011Z" fill="#D4C17F"/>
<path d="M52 59.0011H49.3333C48.5959 59.0011 48 59.5984 48 60.3344C48 61.0703 48.5959 61.6677 49.3333 61.6677H52C52.7373 61.6677 53.3333 61.0703 53.3333 60.3344C53.3333 59.5984 52.7373 59.0011 52 59.0011Z" fill="#D4C17F"/>
</svg>
